# xmcd
#
# Track frame offsets:
#	150
#	15429
#	28168
#	45547
#	61839
#
# Disc length: 1059 seconds
#
# Revision: 5
# Processed by: cddbd v1.5.1PL2 Copyright (c) Steve Scherf et al.
# Submitted via: Rip'N'TagIt 1.4.0.0 
#
DISCID=33042105
DTITLE=Answer - Keep Believin'
DYEAR=2005
DGENRE=Rock
TTITLE0=Keep Believin'
TTITLE1=No Questions Asked
TTITLE2=Be What You Want
TTITLE3=So Cold
TTITLE4=Keep Believin' (club mix)
EXTD=Irish Band:\n
EXTT0=
EXTT1=
EXTT2=
EXTT3=
EXTT4=
PLAYORDER=
